# xmcd CD database file
#
# Track frame offsets:
#	150
#	8570
#	24605
#	39350
#	56667
#	75240
#	94780
#	115182
#	128395
#	146635
#	166915
#	177625
#	198782
#	219085
#
# Disc length: 3100 seconds
#
# Revision: 14
# Processed by: cddbd v1.5.2PL0 Copyright (c) Steve Scherf et al.
# Submitted via: CDex 1.70beta3
#
DISCID=a60c1a0e
DTITLE=JET - Get Born
DYEAR=2003
DGENRE=Loud Rock
TTITLE0=Last Chance
TTITLE1=Are You Gonna Be My Girl
TTITLE2=Rollover D.J.
TTITLE3=Look What You've Done
TTITLE4=Get What You Need
TTITLE5=Move On
TTITLE6=Radio Song
TTITLE7=Get me Outta Here
TTITLE8=Cold Hard Bitch
TTITLE9=Come Around Again
TTITLE10=Take It or Leave It
TTITLE11=Lazy Gun
TTITLE12=Timothy
TTITLE13=Hey Kids
EXTD=YEAR: 2003
EXTT0=
EXTT1=
EXTT2=
EXTT3=
EXTT4=
EXTT5=
EXTT6=
EXTT7=
EXTT8=
EXTT9=
EXTT10=
EXTT11=
EXTT12=
EXTT13=
PLAYORDER=
